<?xml version="1.0" encoding="UTF-8" standalone="no"?>
<!DOCTYPE svg PUBLIC "-//W3C//DTD SVG 1.1//EN"
 "http://www.w3.org/Graphics/SVG/1.1/DTD/svg11.dtd">
<!-- Generated by graphviz version 9.0.0 (20230911.1827)
 -->
<!-- Title: G Pages: 1 -->
<svg width="579pt" height="98pt"
 viewBox="0.00 0.00 579.25 98.00" xmlns="http://www.w3.org/2000/svg" xmlns:xlink="http://www.w3.org/1999/xlink">
<g id="graph0" class="graph" transform="scale(1 1) rotate(0) translate(4 94)">
<title>G</title>
<polygon fill="white" stroke="none" points="-4,4 -4,-94 575.25,-94 575.25,4 -4,4"/>
<!-- aws_iam_policy.s3&#45;reader -->
<g id="node1" class="node">
<title>aws_iam_policy.s3&#45;reader</title>
<polygon fill="none" stroke="black" points="174.25,-90 1.5,-90 1.5,-54 174.25,-54 174.25,-90"/>
<text text-anchor="middle" x="87.88" y="-66.2" font-family="sans-serif" font-size="14.00">aws_iam_policy.s3&#45;reader</text>
</g>
<!-- aws_iam_user.admin&#45;user -->
<g id="node2" class="node">
<title>aws_iam_user.admin&#45;user</title>
<polygon fill="none" stroke="black" points="175.75,-36 0,-36 0,0 175.75,0 175.75,-36"/>
<text text-anchor="middle" x="87.88" y="-12.2" font-family="sans-serif" font-size="14.00">aws_iam_user.admin&#45;user</text>
</g>
<!-- aws_iam_user_policy_attachment.lucy&#45;policy&#45;attachment -->
<g id="node3" class="node">
<title>aws_iam_user_policy_attachment.lucy&#45;policy&#45;attachment</title>
<polygon fill="none" stroke="black" points="571.25,-63 211.75,-63 211.75,-27 571.25,-27 571.25,-63"/>
<text text-anchor="middle" x="391.5" y="-39.2" font-family="sans-serif" font-size="14.00">aws_iam_user_policy_attachment.lucy&#45;policy&#45;attachment</text>
</g>
<!-- aws_iam_user_policy_attachment.lucy&#45;policy&#45;attachment&#45;&gt;aws_iam_policy.s3&#45;reader -->
<g id="edge1" class="edge">
<title>aws_iam_user_policy_attachment.lucy&#45;policy&#45;attachment&#45;&gt;aws_iam_policy.s3&#45;reader</title>
<path fill="none" stroke="black" d="M211.56,-61.02C202.84,-61.8 194.25,-62.57 185.91,-63.31"/>
<polygon fill="black" stroke="black" points="185.86,-59.8 176.21,-64.18 186.48,-66.78 185.86,-59.8"/>
</g>
<!-- aws_iam_user_policy_attachment.lucy&#45;policy&#45;attachment&#45;&gt;aws_iam_user.admin&#45;user -->
<g id="edge2" class="edge">
<title>aws_iam_user_policy_attachment.lucy&#45;policy&#45;attachment&#45;&gt;aws_iam_user.admin&#45;user</title>
<path fill="none" stroke="black" d="M211.56,-28.98C203.38,-28.25 195.31,-27.53 187.46,-26.82"/>
<polygon fill="black" stroke="black" points="187.9,-23.35 177.62,-25.94 187.27,-30.32 187.9,-23.35"/>
</g>
</g>
</svg>
